<?xml version="1.0" encoding="UTF-8"?>
<svg id="Capa_1" data-name="Capa 1" xmlns="http://www.w3.org/2000/svg" viewBox="0 0 32 32">
  <defs>
    <style>
      .cls-1 {
        stroke-width: 0px;
      }
    </style>
  </defs>
  <path class="cls-1" d="m28.91,16.87c.11-.22.23-.43.31-.65.17-.51.16-1.03.02-1.55-.16-.61-.25-1.23-.11-1.86.05-.23.08-.46.09-.69,0-.35-.04-.7-.24-1.02-.13-.23-.21-.5-.39-.67-.38-.37-.8-.69-1.22-1.01-.43-.33-.75-.72-.94-1.23-.07-.2-.16-.4-.22-.6-.22-.73-.64-1.27-1.36-1.57-.51-.21-1.02-.41-1.59-.3-.86.06-1.35-.44-1.73-1.12-.19-.34-.38-.68-.59-1-.32-.51-.69-.98-1.35-1.06-.62-.07-1.24-.12-1.87-.18-.02-.03-.04-.06-.07-.08-.2-.12-.41-.24-.61-.37-.33-.21-.64-.44-.98-.62-.63-.33-1.53-.19-1.99.26-.08.08-.22.15-.33.16-.35.01-.7-.01-1.06-.02-.24-.04-.48-.09-.72-.11-1.05-.09-2.12.47-2.56,1.35-.12.24-.21.49-.31.73-.03.02-.07.04-.1.06-.29.23-.57.48-.88.69-.43.29-.9.54-1.32.84-.47.33-.61.78-.44,1.29.06.19,0,.24-.15.31-.48.22-.97.43-1.44.68-.43.23-.68.59-.67,1.1,0,.19,0,.37,0,.56,0,.38-.08.73-.33,1.03-.05.06-.07.13-.11.2-.35.38-.58.83-.74,1.31-.13.39-.01.77.12,1.14.16.44.21.88-.04,1.31-.07.12-.15.24-.21.37-.09.19-.16.39-.25.59-.03.07-.07.14-.07.21.02.29,0,.6.08.88.1.34.29.64.45.99-.33,0-.68.02-1.04.03.31.25.63.48,1.01.58.41.11.78.28,1.03.63.19.26.37.51.54.78.19.3.37.61.56.92.21.42.42.84.61,1.27.52,1.15,1.42,1.84,2.59,2.23.74.25,1.51.35,2.28.43.64.07,1.29.13,1.93-.04.23-.06.45-.14.7-.21-.02.09-.03.16-.05.23-.16.58-.16,1.16.07,1.73.09.23.16.48.24.72.03.12.05.24.07.36.02,0,.03,0,.05,0,.07-.19.14-.37.2-.56.1-.33.27-.58.57-.75.48-.26.96-.52,1.45-.77.11-.06.26-.05.39-.08.04.17.11.33.13.5.03.21.02.42.02.63-.02.34-.07.69-.05,1.03.05.76.11,1.53.17,2.29.06.65.27,1.17.49,1.69,0,0,0,0,0-.01.43-.51.84-1.06.79-2.23-.02-.25-.03-.5-.05-.75-.06-.98.02-1.96.17-2.94.01-.09.05-.19.1-.26.09-.11.22-.19.32-.28.37.12.77.27,1.17.38.64.17,1.18.49,1.52,1.08.05.08.11.14.18.2.09.08.19.14.31.23,0-.07,0-.07,0-.08-.02-.04-.05-.08-.07-.12-.28-.51-.48-1.06-.44-1.64.04-.48-.05-.93-.24-1.36-.12-.28-.27-.56-.57-.71-.07-.08-.15-.16-.26-.29.37.09.7.15,1.02.25,1.17.35,2.31.39,3.43-.18.35-.18.7-.37,1.04-.59.68-.44,1.29-.95,1.61-1.73.18-.44.37-.88.56-1.32.32-.73.88-1.15,1.66-1.26.24-.03.49,0,.74-.01-.3-.32-.74-.29-1.1-.4ZM7.2,5.48c.29-.36.7-.56,1.09-.79.44-.25.87-.51,1.17-.93.03-.05.04-.11.06-.16.07-.07.14-.13.2-.2.25-.3.46-.65.74-.91.53-.48,1.18-.61,1.88-.52.13.02.25.02.38.03.27.05.53.09.81.14-.19.11-.39.1-.59.09-.06,0-.12,0-.18,0-.37-.12-.75-.19-1.13,0,.38.03.76.05,1.14.08.18.03.36.07.54.1v.04c-.1.01-.21.02-.31.03-.06.01-.12.03-.19.05-.11-.03-.22-.09-.33-.08-.19,0-.38.04-.56.07,0,.02,0,.04,0,.06.3.02.6.04.9.06.28.07.54,0,.76-.18.17-.15.34-.32.5-.48.53-.54,1.39-.68,2.05-.32.33.18.64.41.97.61.1.06.21.09.31.14.19.1.37.24.57.29.29.06.59.07.89.07.7,0,1.28.23,1.66.85.13.22.25.44.37.66.13.24.25.48.39.72.16.27.33.52.61.69.07.04.12.12.16.2-.35-.05-.58-.27-.77-.53-.28-.39-.55-.78-.82-1.17-.07-.09-.15-.17-.26-.24.14.24.28.48.43.72.16.24.31.49.5.71.18.22.39.41.58.63-.29-.01-.5-.17-.67-.37-.29-.32-.56-.67-.85-1.01-.03-.03-.06-.06-.1-.08.25.46.51.91.89,1.28.07.07.18.1.26.16.06.04.11.08.14.15-.62-.09-.92-.6-1.32-.98.17.45.53.74.92,1.06-.23.03-.39-.03-.5-.17-.19-.23-.35-.48-.52-.72-.04-.05-.07-.1-.11-.15-.01,0-.03.02-.05.03.18.32.35.63.53.95,0,0-.02.02-.03.02-.06-.06-.13-.11-.18-.18-.13-.16-.28-.31-.38-.49-.47-.76-1.29-.91-2.04-.63-.11.04-.24.07-.34.13-.18.11-.33.06-.48-.06-.45-.35-.98-.4-1.51-.39-.3,0-.62.15-.89.3-.41.23-.79.52-1.19.78-.42.23-.88.3-1.35.35-.26.03-.49.13-.7.3-.14.11-.36.2-.53.18-.45-.05-.9-.15-1.35-.24-.03,0-.05-.06-.08-.1-.12.03-.25.07-.39.11-.01-.02-.02-.04-.03-.06.05-.07.1-.14.15-.21-.01-.02-.03-.03-.04-.05-.14.09-.29.17-.43.26,0-.01-.02-.03-.03-.05.12-.11.24-.23.36-.35-.01-.02-.03-.04-.04-.06-.06.03-.14.06-.19.11-.08.07-.14.15-.21.22-.09.08-.19.14-.34.03.2-.19.39-.38.61-.59-.5.03-.56.61-.97.71-.02-.01-.03-.03-.05-.04.19-.26.38-.52.58-.79-.18.04-.34.19-.5.45-.08.12-.17.24-.27.35-.04.05-.11.07-.21.13.05-.45.34-.72.56-1.03-.28.06-.47.27-.56.56-.07.19-.18.36-.27.54,0,.02-.04.02-.09.05-.05-.38.06-.69.29-.96Zm16.93,9.99c.04.1.07.21.09.32.11.49-.09.88-.57,1.04-.34.11-.7.19-1.05.26-.45.09-.81.28-1.07.66-.24.35-.57.57-.96.72-.33.12-.67.25-.9.59-.08-.19-.04-.33.07-.45.11-.12.25-.23.37-.34.08-.07.15-.15.23-.23-.02-.02-.03-.04-.05-.05-.21.18-.43.36-.67.56-.04-.42.36-.54.45-.86-.11.09-.21.19-.32.27-.06.04-.14.06-.21.09.01-.09,0-.19.04-.26.07-.1.19-.18.29-.26-.01-.02-.03-.04-.04-.06-.13.08-.27.16-.4.23-.18-.24.21-.26.13-.47-.08.05-.16.09-.23.13-.26-.17,0-.29.09-.47-.13.04-.19.06-.26.08-.02,0-.04.02-.05.02-.43-.95-.89-1.89-1.29-2.85-.4-.98-.47-2.04-.64-3.05-.08.38-.12.79-.24,1.16-.13.39-.29.78-.52,1.11-.52.77-1.09,1.51-1.65,2.25-.5.68-.92,1.39-1.12,2.2-.15-.08-.3-.17-.45-.25,0,.02-.02.03-.03.05.16.18.53.23.4.63-.18-.11-.34-.21-.49-.31.19.23.45.4.43.78-.25-.19-.49-.36-.73-.53-.01.01-.03.03-.04.04.29.23.62.43.71.82-.28-.13-.55-.25-.82-.37.3.23.67.38.86.8-.36-.19-.69-.35-1.01-.52.36.28.78.47,1.01.9-.46-.24-.92-.47-1.38-.7,0,.02-.02.03-.03.05.54.33,1.18.53,1.41,1.22-.04-.03-.09-.06-.13-.09-.56-.49-1.2-.82-1.94-.95-.83-.14-1.4-.6-1.69-1.39-.04-.11-.07-.22-.08-.34-.03-.35-.19-.61-.46-.82-.16-.13-.31-.27-.48-.39-.35-.25-.46-.6-.46-1.01,0-.28,0-.57-.03-.85,0-.08-.08-.16-.13-.24-.01-.07,0-.14-.03-.19-.2-.38-.44-.73-.59-1.13-.34-.88-.42-1.78-.06-2.68.05-.11.1-.23.17-.32.38-.52.77-1.03,1.16-1.55.24-.32.59-.5.96-.63.39-.14.71-.38,1.04-.64.46-.35.93-.73,1.57-.77.27-.01.54-.1.81-.18.09-.02.16-.1.23-.16.09-.03.18-.06.25-.11.31-.2.62-.42.94-.62.51-.32,1.05-.33,1.61-.15.27.09.53.2.79.31.04.02.07.07.12.13.22-.03.48-.06.79-.1-.1-.03-.17-.04-.26-.06.27-.16.51-.24.82-.15.67.19,1.12.57,1.29,1.25.22.89.89,1.37,1.61,1.82.45.28.9.56,1.21,1.01.25.36.35.76.42,1.18.08.48.28.9.63,1.24.03.03.07.05.1.08.07.11.13.23.21.33.36.48.45,1,.24,1.55-.21.56-.22,1.12.01,1.68Zm-5.65,5.7s-.03-.02-.05-.02c.08-.29.16-.58.25-.88-.01,0-.03,0-.04-.01-.11.26-.22.52-.34.77-.12.26-.3.47-.57.6.4-.47.62-1.02.74-1.63-.02,0-.04,0-.05,0-.01,0-.03,0-.06,0,.03-.45.1-.91-.05-1.36-.14,1.16-.35,2.28-1.26,3.12.21-.46.17-.94.15-1.42-.16.54-.24,1.11-.59,1.58-.02,0-.05-.01-.07-.02.03-.39.06-.78.09-1.18-.02,0-.03,0-.05,0-.07.43-.15.85-.23,1.33-.21-.62-.19-1.23-.29-1.83-.02,0-.05,0-.07,0l.15,1.87s-.02,0-.03.01c-.1-.28-.19-.55-.29-.83-.06-.17-.11-.35-.16-.53-.04-.2-.09-.41-.13-.61-.02.23,0,.46.03.68.03.16.09.31.14.47.05.18.1.35.15.53-.44-.69-.47-1.49-.69-2.25-.03.76.21,1.47.42,2.18-.02,0-.04.02-.06.03-.1-.19-.23-.36-.3-.56-.15-.47-.27-.94-.4-1.41-.09-.31-.19-.62-.32-.92-.11,1.12.29,2.12.74,3.11-.28-.25-.43-.59-.56-.93-.13-.33-.26-.67-.38-1-.03,0-.05.02-.08.03.12.41.25.82.37,1.24-.01,0-.02,0-.03.01-.12-.29-.25-.57-.37-.86-.02,0-.04.02-.07.02.08.24.15.49.25.72.1.23.22.46.36.72-.35-.23-.55-.51-.66-.86-.46-1.4-.34-2.78.23-4.12.21-.5.51-.94.86-1.36.04-.05.1-.09.16-.15-.21.44-.41.85-.62,1.27,0,0,.02,0,.03.01.28-.45.56-.91.84-1.36.01,0,.03.01.04.02-.11.38-.22.76-.33,1.15.35-.58.47-1.26.89-1.8-.2.68-.4,1.35-.59,2.03.03,0,.05.02.08.02.19-.58.39-1.17.57-1.76.18-.59.35-1.18.61-1.73.02,0,.05.01.07.02-.22.98-.43,1.97-.65,2.95.01,0,.03,0,.05.01.19-.64.39-1.28.58-1.91.02,0,.03,0,.05,0-.09.68-.17,1.37-.26,2.05.02,0,.03,0,.05.01.11-.52.22-1.04.33-1.56h.03c.03.81.06,1.62.09,2.43.19-.73.05-1.47.1-2.21.31.9.52,1.82.56,2.77.02,0,.04,0,.06,0,.01-.23.06-.46.02-.68-.11-.59-.26-1.17-.39-1.76-.05-.2-.09-.39-.1-.6.39.96.78,1.91,1.18,2.87.01,0,.02,0,.04,0-.01-.06-.01-.13-.03-.18-.28-.76-.56-1.51-.84-2.27-.23-.59-.45-1.18-.51-1.82,0-.06,0-.12,0-.17,0-.03,0-.06.03-.1.06.25.11.49.17.74.23.85.65,1.62,1.03,2.4.33.68.67,1.35.81,2.09.16.83.09,1.64-.31,2.39-.09.16-.22.3-.35.44.21-.35.35-.72.39-1.12-.18.35-.36.71-.54,1.07Zm-14.76-4.36c-.1-.44-.17-.89-.25-1.33-.02-.14-.02-.28-.07-.42-.12.62.08,1.2.15,1.8-.02,0-.04.01-.06.02-.11-.28-.24-.56-.31-.85-.08-.32-.1-.65-.15-.97.29-.45.85-.74.9-1.32.03-.39-.03-.8-.12-1.18-.1-.48-.11-.94-.03-1.42,0-.03.03-.05.05-.08-.21.21-.2.48-.18.74.02.37.08.73.12,1.1.03.29.07.58-.08.91-.04-.2-.08-.35-.1-.49-.05-.48-.11-.96-.13-1.44-.01-.29.08-.57.27-.81.02-.02.02-.06.03-.09l.1.05c.04-.09.05-.21.12-.28.53-.58.69-1.28.67-2.03-.01-.53.26-.82.71-1.02.2-.09.41-.16.61-.25.2-.09.42-.17.57-.32.62-.59,1.36-.7,2.16-.61.42.05.83.11,1.25.16.22.02.45.01.7.02-.28.23-.58.31-.9.24-.35-.07-.69-.18-1.03-.25-.16-.03-.33,0-.49.03.57.14,1.14.28,1.71.41-.63.18-1.24-.17-1.87-.02.48.09.97.18,1.45.27,0,.02,0,.05,0,.07-.16.02-.33.05-.49.05-.21,0-.41-.05-.62-.06-.15,0-.3.04-.44.06,0,.02,0,.04,0,.05.31.03.63.07.99.1-.24.25-.46.46-.66.69-.74.84-1.27,1.77-1.39,2.91-.09.9.13,1.72.58,2.48.1.17.18.35.27.51.03.05.07.08.11.11,0,.04-.02.09,0,.12.1.25.09.51.07.78-.06.62.12,1.16.7,1.48.33.18.51.44.63.79.21.63.49,1.23.97,1.77-.38.06-.56-.35-.91-.31.12.1.23.2.35.31-.39.05-.57-.31-.89-.39-.01.01-.03.03-.04.04.12.13.24.25.37.37-.01.02-.03.04-.04.06-.24-.16-.49-.32-.73-.48,0,0-.01,0-.02.01.12.15.25.3.37.45-.35-.02-.59-.2-1.18-.9-.02.01-.03.02-.05.03.11.16.21.33.34.48.13.15.29.27.46.42-.36.01-.66-.25-1.46-1.22.12.51.49.8.86,1.16-.21.03-.37-.01-.48-.12-.19-.18-.35-.37-.51-.58-.19-.25-.35-.52-.55-.77.09.55.55.88.79,1.4-.33-.11-.53-.32-.69-.56-.21-.32-.4-.65-.59-.97-.05-.07-.09-.15-.15-.22.13.58.54,1.02.8,1.53-.02.02-.03.03-.05.05-.14-.12-.29-.24-.41-.37-.47-.54-.7-1.2-.87-1.88-.03-.1-.05-.19-.09-.28-.04.82.44,1.48.76,2.18-.02.01-.04.03-.06.04-.14-.17-.31-.33-.43-.52-.14-.22-.25-.46-.38-.69-.14-.53-.27-1.06-.42-1.62-.01.09-.03.15-.03.22,0,.58.21,1.1.43,1.62,0,0,.02,0,.03.01.02.15.04.31.05.46-.68-.76-.77-1.74-.99-2.66,0-.02-.01-.05-.07-.07.03.22.04.45.08.67.04.23.09.47.15.7.05.22.11.45.15.67-.26-.19-.39-.46-.46-.75Zm9.15,6.84c-.52.16-1.06.2-1.61.19-.94-.02-1.86-.14-2.75-.47-.71-.27-1.32-.68-1.76-1.31-.03-.05-.06-.09-.08-.16.42.41.87.78,1.43.97-.97-.68-1.81-1.48-2.45-2.48.43.5.84,1.04,1.49,1.39-.35-.37-.67-.7-.97-1.04-.34-.39-.67-.8-1-1.2-.04-.04-.09-.07-.14-.11-.13-.21-.25-.43-.4-.68.14.12.24.21.34.29.21.41.53.71.87,1-.21-.32-.43-.62-.67-.92-.06-.07-.15-.12-.22-.19-.2-.23-.41-.46-.61-.68-.05-.05-.09-.1-.14-.15.01-.01.03-.03.04-.04.17.17.35.34.52.5.04.04.1.07.15.1.14.18.27.38.43.54.23.22.47.42.81.48-.27-.21-.52-.42-.78-.63.02-.02.03-.05.05-.07.14.08.27.17.41.24.65.34,1.35.43,2.07.44.81,0,1.61-.02,2.42-.02.31,0,.62.04.93.07.03,0,.07.03.1.05-.52.05-1.05-.02-1.55.21.23,0,.45-.03.68-.02.53.01,1.07.01,1.6.06.33.03.64.15.88.41-.69-.3-1.39-.5-2.14-.23.95.01,1.87.09,2.64.74-.77-.33-1.55-.54-2.39-.32.91.08,1.85.07,2.62.72-.79-.34-1.62-.46-2.48-.41.86.18,1.76.2,2.55.66-.37-.06-.73-.14-1.1-.19-.37-.05-.74-.08-1.11-.1.52.31,1.14.15,1.68.39-.73-.02-1.46-.05-2.19-.07.4.19.82.18,1.25.2.46.02.91.06,1.37.09.1,0,.19.06.28.11-1.23-.04-2.47.12-3.69-.18.48.28,1.01.34,1.54.34.66,0,1.33,0,2,0,.13,0,.26.03.39.07-1.68.3-3.32.16-4.94-.38,0,.02-.01.03-.02.05.33.12.65.26.98.37.99.31,2,.34,3.03.21.38-.05.77-.04,1.16-.05.05,0,.1.01.15.06-.95.16-1.9.32-2.88.49.64.11,1.22-.07,1.82-.18-.22.22-1.06.46-1.68.43-.58-.02-1.17-.1-1.7-.16.54.26,1.17.35,1.82.31.65-.04,1.27-.22,1.88-.42-1.5.83-3.05.67-4.62.22.68.4,1.59.58,2.47.49.34-.04.68-.09,1.01-.15.33-.07.66-.16.99-.24,0,.03-.02.06-.03.09-.25.09-.5.18-.75.26Zm3.22.38c.13-.04.19-.07.26-.09.01,0,.02.02.03.03-.07.1-.15.2-.22.29-.13.08-.25.16-.39.24-.41.22-.83.44-1.24.66-.21.12-.41.25-.67.41.09-.19.17-.32.24-.46,0,0,0,0,0,0-.04.06-.08.12-.13.17-.04.05-.1.08-.15.12-.01-.01-.03-.02-.04-.03.08-.18.16-.35.24-.53,0,0-.01,0-.02-.01-.14.19-.28.38-.45.61.04-.25.07-.45.11-.65-.02,0-.03,0-.05-.01-.08.21-.16.41-.24.63,0-.52-.11-1.04.18-1.51.1-.16.24-.29.36-.43.04-.05.08-.09.12-.14.2-.06.41-.1.6-.18.2-.08.38-.2.6-.27-.09.07-.18.13-.26.21-.04.04-.07.09-.1.13-.22.15-.45.3-.67.45.01.02.03.04.04.07.24-.15.47-.31.71-.46.01.02.02.03.04.05-.28.28-.56.56-.85.83.5-.25.9-.61,1.25-1.03.17-.09.34-.17.52-.25.08-.04.16-.05.26-.05-.06.06-.12.13-.18.19.01.02.02.04.03.05.15-.08.3-.16.47-.25-.04.07-.06.11-.08.15-.13.14-.27.27-.4.41-.1.1-.2.19-.29.29.02.02.04.03.06.05.08-.11.16-.22.24-.33.03,0,.07.02.08,0,.16-.13.31-.27.47-.41.02,0,.05-.01.07-.02-.15.19-.3.39-.45.58-.04.06-.08.12-.11.19-.14.08-.28.16-.42.25.02.03.04.06.06.08.12-.1.25-.19.37-.29.14-.1.29-.19.43-.29.01.01.02.02.03.03-.14.16-.28.33-.46.53Zm1.47.64c.03.08.09.16.08.22-.22,1.3-.23,2.6-.18,3.9.15.69-.13,1.32-.39,1.94h0c-.12-.62-.31-1.26-.25-1.67-.01-.19-.03-.38-.04-.57-.02-.28-.06-.56-.09-.84,0-.13,0-.25,0-.38,0-.54-.02-1.07-.03-1.6,0-.14-.02-.27-.02-.41,0-.11.02-.21.04-.35.19.13.15.27.15.4,0,.21-.02.41.01.61.16.87.11,1.74.12,2.61,0,.15,0,.31.01.46l.09.68s.07-.73.07-.75c-.03-.66-.06-1.33-.09-1.99-.04-.68-.09-1.36-.13-2.04.02,0,.04,0,.06,0-.1-.07-.2-.15-.34-.25.11,0,.17-.01.24-.01-.07-.08-.27-.07-.16-.28-.03-.03-.07-.08-.13-.15.08,0,.13-.01.13-.01.02-.1.02-.18.06-.23.25-.32.37-.68.37-1.08.04-.12.08-.23.13-.38.03.13.07.24.09.35.02.16.05.32.07.5-.06.02-.15.06-.25.1,0,.02,0,.03,0,.05.11,0,.22.01.38.02-.12.09-.19.15-.28.22.15,0,.27.01.39.02,0,.03.01.06.02.09-.14.08-.29.17-.44.26.23.1.38-.08.58-.14-.04.3-.35.28-.48.48.29.06.43-.22.66-.28.03.2,0,.24-.47.52Zm2.68-1.75c.4.49.58,1.05.49,1.69-.02,0-.04,0-.06.01-.03-.15-.06-.31-.07-.46-.02-.16-.02-.33-.08-.5-.02.25-.03.5-.05.8-.18-.3-.32-.55-.47-.8-.01,0-.02.01-.03.02.11.26.23.52.34.77-.02.01-.03.02-.05.03-.22-.23-.44-.46-.66-.7,0,0-.02.02-.03.02.16.21.31.41.47.62-.01.01-.03.03-.05.04-.19-.11-.38-.22-.57-.33-.01.02-.02.03-.03.05.16.12.33.24.49.36,0,.02-.02.03-.03.05-.47-.18-.94-.34-1.4-.55-.31-.15-.5-.43-.6-.78.17.14.32.26.47.39,0-.01.02-.02.03-.03-.19-.23-.37-.45-.55-.68,0,0,.02-.01.03-.02.17.14.34.29.51.43.02-.02.03-.03.05-.05-.17-.18-.35-.36-.53-.54,0-.06,0-.13-.01-.19.08.05.16.1.23.16.13.16.27.31.4.47.01-.01.03-.02.04-.04-.13-.15-.26-.29-.39-.44,0-.04.02-.08.03-.13.07.03.15.07.27.13-.07-.12-.1-.18-.16-.29.16.08.28.14.41.2.14.12.27.24.41.36,0,0,0-.01.01-.02-.09-.12-.19-.24-.28-.36.11-.02.23-.04.35-.06.2.15.4.3.6.44,0,0,.01,0,.02-.01-.15-.15-.3-.3-.45-.45.03-.01.06-.03.11-.05-.16-.12-.31-.23-.46-.34.01-.02.02-.04.03-.06.21.09.42.19.63.28.06.03.12.06.19.09.14.15.3.3.43.46Zm5.06-1.58c-1.56,1.09-3.21,1.2-4.95.48.44.05.86.11,1.29.14.43.03.85-.01,1.25-.19-.91.03-1.82.1-2.66-.15.46-.07.96-.14,1.46-.22,0-.04,0-.07-.01-.11-.92.08-1.84.15-2.76.23,0-.01-.01-.02-.02-.03.08-.03.15-.07.23-.09.8-.18,1.61-.36,2.41-.57-.82-.02-1.57.38-2.37.46,0-.02-.01-.04-.02-.06.44-.19.89-.37,1.33-.56,0-.01-.01-.03-.02-.04-.35.11-.71.21-1.06.32-.01-.03-.02-.05-.03-.07.2-.11.4-.23.61-.32.47-.2.96-.24,1.46-.27.37-.02.75-.06,1.12-.1.1,0,.19-.05.29-.08-.66,0-1.33.01-1.99.02v-.05c.34-.09.68-.18,1.03-.26,0-.02-.01-.05-.02-.07-.25.05-.51.1-.76.17-.26.07-.52.17-.77.26-.26.09-.51.17-.79.27.27-.33,1.18-.66,2.74-1.03-.24-.06-.65,0-1.32.23-.43.14-.86.31-1.3.44.7-.58,1.59-.67,2.41-.95,0-.02-.01-.04-.02-.06-.68.17-1.35.35-2.02.52h-.01c.16-.1.32-.2.49-.28.92-.44,1.89-.6,2.9-.62.67-.01,1.34,0,2.01,0,.02,0,.05,0,.11.02-.09.04-.14.07-.2.1,0,0,0,.01,0,.02.11-.02.21-.04.31-.06,0,.01,0,.02.01.04-.24.13-.48.25-.72.37.01.02.02.05.03.07.39-.15.79-.31,1.18-.46.01.02.02.03.03.05-.39.29-.77.57-1.19.88.92-.23,1.39-1.03,2.08-1.51-.6.75-1.27,1.42-2.03,2.02.24-.03.47-.17.92-.6.27-.25.52-.52.78-.78.02.02.04.04.06.05-.52.59-1.04,1.17-1.53,1.73.47-.27.82-.74,1.25-1.13-.28.63-.72,1.21-1.37,1.56.26-.03.66-.27.92-.56.33-.38.55-.82.77-1.27.13-.26.29-.5.45-.74-.12,1-1.11,2.23-1.98,2.84Zm2.44-4.2c-.31.16-.6.38-.86.61-.5.45-1.08.68-1.74.72-.7.03-1.4.04-2.09.04-.72,0-1.41.12-2.09.36-.08.03-.16.04-.24.07,0-.02-.01-.04-.02-.06.26-.1.52-.2.78-.29.27-.09.53-.17.79-.29-.2.04-.41.08-.61.11,0-.02-.01-.04-.02-.05.13-.04.27-.08.4-.12.14-.04.28-.09.41-.14,0-.03-.01-.06-.02-.09-.22.06-.43.13-.65.19,0-.04-.02-.09-.03-.13.26-.08.52-.16.78-.25,0-.02,0-.04-.01-.06-.14.04-.28.09-.43.13,0-.03-.02-.07-.03-.1.16-.07.32-.13.48-.2,0-.01,0-.03-.01-.04-.12,0-.24.02-.35.03,0-.02,0-.04-.01-.06.23-.07.46-.14.68-.22.36-.14.72-.26,1.06-.43.59-.3.8-.88.58-1.49-.05-.13-.09-.26-.13-.39-.1-.29-.07-.57.06-.85.04-.08.04-.18.06-.28.03-.07.07-.13.09-.21.12-.5.1-.99-.19-1.43-.04-.06-.11-.09-.17-.14-.06-.08-.12-.16-.19-.24-.05-.07-.09-.16-.16-.22-.5-.44-.69-1.03-.85-1.64-.05-.21-.12-.42-.2-.63-.15-.43-.39-.78-.81-1.02.12.02.24.04.35.06,0,0,0-.02,0-.03-.26-.1-.52-.2-.78-.3,0-.02,0-.04,0-.06.32.03.63.05.95.08-.43-.3-.95-.14-1.43-.3.51-.04,1-.09,1.49-.13-.26-.15-.52-.1-.79-.08-.26.01-.52.03-.77.03-.1,0-.2-.06-.29-.11.63.05,1.24-.07,1.84-.24,0-.02,0-.03,0-.05-.18,0-.36,0-.53.02-.28.03-.56.09-.84.12-.26.03-.52.02-.76-.21.67.12,1.24-.19,1.84-.27.19-.03.38-.03.58-.05-.24-.15-.49-.13-.75-.07-.32.07-.62.17-.94.23-.18.03-.37.03-.56.02-.08,0-.15-.07-.22-.13.91.06,1.73-.36,2.61-.46-.21-.11-.43-.1-.64-.05-.45.11-.9.25-1.35.36-.29.07-.59.08-.88-.18.14.02.23.03.33.04.52.04,1.01-.13,1.5-.25.41-.1.82-.16,1.23-.23.03,0,.06-.02.09-.04.12.02.24.04.36.06,1.19.17,2.12,1.03,2.42,2.21.09.37.13.77.44,1.04.25.22.55.38.82.57.31.21.62.41.91.65.13.11.2.3.3.45.03.05.07.1.11.15,0,.03-.02.06-.01.09.19.51.17,1.03.04,1.55-.17.64-.18,1.28.04,1.91.32.9-.13,1.99-1,2.44Z"/>
  <path class="cls-1" d="m17.25,27.27s.03,0,.05,0c-.03-.76-.06-1.51-.1-2.31-.23.8-.02,1.55.05,2.31Z"/>
  <path class="cls-1" d="m8.65,13.85c-.09-.18-.19-.36-.31-.53-.77-1.06-.85-2.19-.27-3.35.17-.34.4-.66.6-.99-.05.05-.12.1-.16.15-.17.22-.35.43-.5.66-.71,1.11-.56,2.44.09,3.42.21.31.46.6.57.97.01-.12.03-.24-.02-.34Z"/>
  <path class="cls-1" d="m8.57,10.11c-.39.53-.57,1.11-.42,1.76.15.66.57,1.19.89,1.76-.14-.39-.31-.77-.5-1.14-.28-.54-.4-1.1-.22-1.7.07-.23.16-.46.24-.69Z"/>
  <path class="cls-1" d="m22.1,16.61c-.34.09-.66.22-.77.59-.07.23-.16.44-.43.57.28,0,.35-.04.47-.37.14-.39.42-.57.79-.65.25-.05.5-.09.74-.14.24-.05.46-.14.59-.3-.27.07-.57.14-.88.21-.17.04-.35.05-.51.09Z"/>
  <path class="cls-1" d="m23.44,11.86c-.23-.34-.47-.69-.68-.99.11.38.34.75.66,1.07.05.09.11.19.15.29.07.17.15.34.19.52.09.4-.02.79-.1,1.18-.08.39-.14.78-.05,1.13.07-.39.14-.82.22-1.24.08-.41.15-.84,0-1.24-.09-.23-.25-.43-.38-.64,0-.02,0-.06,0-.07Z"/>
  <path class="cls-1" d="m23.04,12.22c.21.42.24.85.14,1.3-.03.13-.05.25-.07.38-.02.16-.02.32-.03.48.02,0,.04,0,.06,0,.04-.17.08-.35.12-.52.14-.6.19-1.18-.14-1.74-.03-.04-.07-.08-.11-.12,0-.03.02-.06,0-.09-.17-.33-.35-.65-.55-1.02.11.43.27.79.5,1.11.02.07.04.15.07.21Z"/>
  <path class="cls-1" d="m21.5,16.72c.16-.25.39-.38.68-.43.15-.02.29-.05.44-.09.19-.06.37-.13.55-.2,0-.02-.01-.03-.02-.05-.11.03-.21.05-.32.08-.35.09-.72.17-1.06.29-.29.1-.51.3-.56.63l.04.03c.08-.09.18-.16.24-.26Z"/>
  <path class="cls-1" d="m8.65,16c.46.48.9.95,1.35,1.41-.19-.52-.8-1.16-1.35-1.41Z"/>
  <path class="cls-1" d="m22.07,10.06c-.01-.22-.09-.42-.27-.54-.35-.23-.71-.45-1.07-.67-.02.02-.03.04-.05.07.13.11.26.24.41.32.38.22.78.4.98.83Z"/>
  <path class="cls-1" d="m17.52,6.01c-.33.03-.65.11-.97.11-.32,0-.64-.1-.96-.15,0,.02,0,.04-.01.06.29.25,1.39.26,1.94-.01Z"/>
  <path class="cls-1" d="m9.35,16.04c.36.42.7.82,1.04,1.22-.23-.49-.45-1-1.04-1.22Z"/>
  <path class="cls-1" d="m10.35,7.64c.71-.34,1.42-.67,2.13-1.01-.76.23-1.47.57-2.13,1.01Z"/>
  <path class="cls-1" d="m9.89,15.75c.29.37.55.71.82,1.05-.13-.45-.32-.85-.82-1.05Z"/>
  <path class="cls-1" d="m16.41,5.71c-.4-.1-.79-.21-1.19-.31,0,.02-.01.04-.02.07.35.3.78.29,1.21.24Z"/>
  <path class="cls-1" d="m20.81,9.33c.16.44.67.58.85,1-.03-.56-.56-.67-.85-1Z"/>
  <path class="cls-1" d="m22.37,9.77c-.03-.26-.13-.48-.34-.61-.39-.24-.81-.45-1.21-.67-.01.02-.02.03-.03.05.57.36,1.3.51,1.58,1.23Z"/>
  <path class="cls-1" d="m8.83,10.66c-.23.64-.05,1.24.18,1.84-.15-.6-.28-1.21-.18-1.84Z"/>
  <path class="cls-1" d="m22.46,16v-.06c-.45-.07-.81,0-1.02.23.37-.06.69-.12,1.02-.18Z"/>
  <path class="cls-1" d="m22.53,12.28c-.03.47-.06.96-.09,1.45.02,0,.04,0,.05,0,.05-.49.21-.98.04-1.45Z"/>
  <path class="cls-1" d="m18.59,5.74c.14.12.3.23.42.37.13.14.24.3.35.46.1.15.2.31.29.47-.13-.51-.68-1.19-1.07-1.3Z"/>
  <path class="cls-1" d="m16.27,6.57c.43.17.84-.14,1.27-.08-.43-.13-.84.08-1.27.08Z"/>
  <path class="cls-1" d="m20.74,12.49c.03.27.07.52.1.75.19-.24.16-.58-.1-.75Z"/>
  <path class="cls-1" d="m18.21,7.81c.2.08.39.16.6.24-.08-.27-.34-.37-.6-.24Z"/>
  <path class="cls-1" d="m13.19,11.3c0-.23.02-.45.02-.68-.2.17-.2.39-.02.68Z"/>
  <path class="cls-1" d="m13.75,7.35c.21,0,.41,0,.65,0-.2-.21-.44-.2-.65,0Z"/>
  <path class="cls-1" d="m10.32,9.2c.19-.08.35-.15.53-.23-.22-.13-.4-.05-.53.23Z"/>
  <path class="cls-1" d="m19.23,10.16c.14.16.15.38.37.49-.08-.37-.15-.48-.37-.49Z"/>
  <path class="cls-1" d="m11.57,12.81c-.02-.17-.03-.34-.05-.55-.16.2-.15.36.05.55Z"/>
  <path class="cls-1" d="m10.54,15.71s-.03.03-.05.04c.1.14.2.28.33.46.05-.31-.15-.38-.29-.5Z"/>
  <path class="cls-1" d="m11.79,7.22l.02.05c.29-.11.58-.22.87-.32,0-.02-.01-.04-.02-.06-.29.11-.58.22-.86.33Z"/>
  <path class="cls-1" d="m12.18,15.31s-.11,0-.14.02c-.02.03-.01.11.01.14.05.06.13.11.19.17.01,0,.02-.02.04-.03-.03-.07-.05-.13-.08-.2-.01-.03-.01-.1-.03-.1Z"/>
  <path class="cls-1" d="m18.73,6.27c.13.17.27.35.4.52l.05-.04c-.13-.17-.26-.34-.4-.51-.02,0-.04.02-.06.03Z"/>
  <path class="cls-1" d="m9.26,12.13c-.02-.21-.04-.42-.06-.63h-.07c.04.22.08.43.12.63,0,0,0,0,0,0Z"/>
  <path class="cls-1" d="m16.07,11.58c.03.13.06.25.09.38.02,0,.05,0,.07-.01-.02-.13-.03-.26-.05-.38l-.11.02Z"/>
  <path class="cls-1" d="m18.21,8.16c.1.06.2.11.31.17.02-.03.03-.06.05-.09l-.31-.15s-.03.05-.04.07Z"/>
  <path class="cls-1" d="m13.84,7.63s0,.05,0,.07c.12,0,.24,0,.36,0,0-.03,0-.07,0-.1-.12.01-.24.02-.36.03Z"/>
  <path class="cls-1" d="m19.94,15.25s.02.03.04.05c.09-.06.19-.13.28-.19-.01-.02-.03-.04-.04-.06-.16-.02-.21.1-.28.2Z"/>
  <path class="cls-1" d="m28.05,15.91c-.14.37-.44.58-.78.74-.64.29-1.26.6-1.78,1.09-.08.08-.19.13-.3.18-.31.15-.63.09-.95.06-.28-.03-.56-.03-.81.11.43.03.86.06,1.29.05.41,0,.8-.12,1.09-.42.28-.29.61-.49.98-.64.42-.17.83-.36,1.13-.72.23-.28.37-.59.25-.98-.04.19-.06.36-.12.52Z"/>
  <path class="cls-1" d="m25.24,7.74c.15.38.28.78.4,1.17.14.44.37.8.77,1.05.16.1.31.2.47.31.02-.02.04-.03.05-.05-.1-.09-.18-.21-.29-.27-.51-.24-.76-.67-.92-1.18-.13-.41-.25-.81-.4-1.21-.17-.46-.49-.78-.98-.91.49.21.72.63.9,1.09Z"/>
  <path class="cls-1" d="m25.13,17.46c.08-.04.19-.05.24-.11.36-.39.84-.56,1.32-.72.23-.08.46-.2.68-.32.14-.08.2-.22.18-.45-.22.42-.59.53-.95.64-.58.18-1.09.46-1.47.96Z"/>
  <path class="cls-1" d="m28.34,11.85c-.05.43-.14.85-.23,1.27-.09.4-.15.79-.05,1.21.05-.3.09-.58.14-.85.08-.44.19-.88.25-1.33.04-.31-.01-.62-.17-.96.03.26.09.46.06.66Z"/>
  <path class="cls-1" d="m26.19,10.21c-.33-.54-.67-1.08-1-1.63.24.61.37,1.29,1,1.63Z"/>
  <path class="cls-1" d="m25.86,18.17c.14-.09.29-.18.43-.28.06-.04.12-.1.18-.14.3-.18.61-.36.91-.54.08-.05.15-.12.23-.18-.67.25-1.28.59-1.76,1.14Z"/>
  <path class="cls-1" d="m26.79,16.08c-.5.2-1.07.23-1.51.6.53-.14,1.06-.26,1.51-.6Z"/>
  <path class="cls-1" d="m27.82,12.72c-.24.88-.27,1.2-.18,1.46.23-.61.3-1.19.18-1.46Z"/>
  <path class="cls-1" d="m25,9.26c.03.31.2.52.42.72-.11-.26-.16-.55-.42-.72Z"/>
  <path class="cls-1" d="m27.33,13.22h-.07c-.15.24-.16.51-.03.79.03-.26.07-.53.1-.79Z"/>
  <path class="cls-1" d="m26.39,11.5c.07.16.14.3.21.45.08-.24-.02-.45-.21-.45Z"/>
  <path class="cls-1" d="m25.67,13.15c.02.14.04.27.06.44.12-.2.11-.32-.06-.44Z"/>
  <path class="cls-1" d="m26.2,14.78c-.01.14-.02.26-.04.39.19-.13.21-.29.04-.39Z"/>
  <path class="cls-1" d="m26.12,11.57l.13.36s.04-.01.06-.02c-.03-.12-.06-.25-.09-.37-.03,0-.06.02-.09.03Z"/>
  <path class="cls-1" d="m23.77,9.12c.07.08.13.17.2.25.02-.02.05-.04.07-.05-.06-.08-.13-.17-.19-.25l-.07.05Z"/>
  <path class="cls-1" d="m4.85,9.64c.03-.24.05-.49.07-.73.04-.4.17-.76.6-.98-.34.05-.52.22-.6.48-.08.3-.14.6-.19.9-.07.42-.11.84-.47,1.18.42-.16.53-.49.58-.86Z"/>
  <path class="cls-1" d="m4.22,12.6c.01.53.02,1.05.03,1.59.21-.31.19-1.15-.03-1.59Z"/>
  <path class="cls-1" d="m4.89,10.49c.45-.43.21-1.02.39-1.51-.02,0-.05-.01-.07-.02-.11.5-.21,1.01-.32,1.53Z"/>
  <path class="cls-1" d="m4.7,12.81c-.24.42,0,.88-.11,1.31.27-.41.08-.87.11-1.31Z"/>
  <path class="cls-1" d="m6.15,13.02s.04,0,.05,0c.02-.22.03-.44.05-.65-.02,0-.04,0-.06,0-.15.21-.12.43-.04.66Z"/>
  <path class="cls-1" d="m6.85,7.3s-.01-.03-.02-.05c-.26.12-.51.23-.77.35.32.03.55-.14.79-.3Z"/>
  <path class="cls-1" d="m5.91,9.81s-.06,0-.09-.01c-.05.26-.1.52-.15.78.02,0,.04,0,.07.01.06-.26.11-.52.17-.78Z"/>
  <path class="cls-1" d="m6.09,16.97s.04-.02.05-.03c-.06-.14-.13-.28-.19-.42-.03.01-.05.02-.08.04,0,.17.09.3.22.41Z"/>
  <path class="cls-1" d="m7.49,16.04c-.04-.16-.07-.32-.11-.48-.02,0-.04,0-.07.01-.07.18.03.33.1.48.02,0,.04,0,.07-.01Z"/>
  <path class="cls-1" d="m5.43,9.76c-.05.28-.09.55-.15.86.18-.28.14-.58.15-.86Z"/>
  <path class="cls-1" d="m4.97,15.32s.04,0,.05,0c-.03-.15-.06-.29-.1-.47-.19.22,0,.34.04.48Z"/>
  <path class="cls-1" d="m5.87,12.77c.03-.16.05-.28.07-.43-.19.08-.2.14-.07.43Z"/>
  <path class="cls-1" d="m5.07,14.78s-.04.07-.03.09c.03.08.08.16.12.23.02,0,.04-.01.05-.02-.02-.09-.03-.17-.06-.25,0-.03-.05-.04-.08-.06Z"/>
  <path class="cls-1" d="m17.77,18.8c-.06.36-.11.72-.17,1.09.23-.34.35-.69.17-1.09Z"/>
  <path class="cls-1" d="m14.52,18.24s.07,0,.1,0c.02-.18.03-.36.05-.54-.03,0-.06,0-.09,0-.02.18-.04.36-.06.54Z"/>
  <path class="cls-1" d="m8.17,19.94c.32.02.64.03.96.05-.32-.15-.64-.18-.96-.05Z"/>
  <path class="cls-1" d="m15.95,23c-.19.19-.35.35-.51.51.3-.08.53-.31.51-.51Z"/>
  <path class="cls-1" d="m16.8,2.5c-.28-.29-.62-.44-1.01-.43.22.12.44.24.66.35.07.04.14.07.2.1.22.27.51.47.85.52.59.09,1.19.12,1.79.18,0-.03,0-.05,0-.08-.3-.04-.59-.08-.89-.11-.53-.04-1.05-.12-1.48-.49-.03-.03-.08-.04-.12-.05Z"/>
  <path class="cls-1" d="m13.2,5.11c-.37.18-.73.36-1.13.56.08-.02.14-.02.18-.04.32-.14.64-.28.96-.43.08-.03.17-.05.25-.09.37-.16.72-.33,1.1-.47.17-.07.37-.07.56-.1-.24-.27-1.35.07-1.92.57Z"/>
  <path class="cls-1" d="m16.83,3.13c-.15-.1-.33-.15-.5-.22-.01.03-.03.05-.04.08.16.11.31.24.49.32.65.3,1.37.23,2.05.4v-.06c-.24-.05-.5-.1-.75-.13-.44-.05-.86-.13-1.24-.38Z"/>
  <path class="cls-1" d="m13.25,4.75c.26-.11.53-.22.79-.32-.01-.03-.02-.07-.03-.1-.26.12-.52.24-.78.36,0,.02.02.04.03.06Z"/>
  <path class="cls-1" d="m10.65,2.97s-.04-.04-.07-.06c-.17.18-.33.36-.5.55,0,.01,0,.05,0,.07-.1.09-.21.16-.3.26-.35.4-.73.77-1.26.93-.08.02-.14.1-.22.16.04.02.06.03.07.03.03,0,.05,0,.08-.01.75-.16,1.24-.66,1.65-1.26.02-.02,0-.07,0-.11.18-.18.37-.37.55-.55Z"/>
  <path class="cls-1" d="m10.46,4.84c.18-.1.31-.17.43-.25-.2-.06-.33.02-.43.25Z"/>
  <path class="cls-1" d="m13.64,2.97c.18-.13.36-.26.54-.39-.27.07-.53.18-.69.42-.12.06-.25.13-.37.19.21,0,.4-.04.52-.22Z"/>
  <path class="cls-1" d="m16.06,3.76l.43.06s.01-.06.02-.09c-.14-.02-.29-.04-.43-.06,0,.03,0,.06-.01.09Z"/>
</svg>